PathFileType	4	(X/Y/Z)	C:/Users/empri/Downloads/Take 2024-05-09 02.19.22 PM.trc
DataRate	CameraRate	NumFrames	NumMarkers	Units	OrigDataRate	OrigDataStartFrame	OrigNumFrames
240	240	44	9	mm	240	622	830
Frame#	Time	C7	CLAV	RELB	RFIN	RFRM	RSHO	RUPA	RWRA	RWRB
X1	Y1	Z1	X2	Y2	Z2	X3	Y3	Z3	X4	Y4	Z4	X5	Y5	Z5	X6	Y6	Z6	X7	Y7	Z7	X8	Y8	Z8	X9	Y9	Z9
622	2.592	-125.109	1541.43	-35.331	32.2877	1365.84	-133.679	138.967	1160.45	114.851	301.111	958.632	-57.5276	173.809	1039.37	101.229	28.1488	1482.06	74.5553	79.4328	1326.05	131.434	227.1	998.801	-32.0771	194.968	920.193	16.1111
623	2.596	-125.133	1541.43	-35.3633	32.3074	1365.85	-133.638	138.918	1160.28	115.027	300.23	955.979	-55.6634	173.177	1038.78	102.276	28.1047	1482.08	74.5764	79.376	1326.05	131.415	226.52	996.893	-30.6278	193.823	919.076	18.3162
624	2.6	-125.15	1541.44	-35.3849	32.3257	1365.86	-133.602	138.876	1160.09	115.306	299.247	953.33	-53.8688	172.632	1038.33	103.293	28.0726	1482.09	74.5866	79.3418	1326.05	131.423	225.921	994.97	-29.1886	192.623	917.868	20.3131
625	2.604	-125.173	1541.44	-35.4364	32.3455	1365.86	-133.57	138.815	1159.8	115.635	298.292	950.773	-52.0072	171.976	1037.74	104.386	28.0392	1482.09	74.5878	79.3179	1326.06	131.448	225.299	993.049	-27.7622	191.401	916.71	22.4777
626	2.608	-125.194	1541.44	-35.4539	32.3673	1365.86	-133.545	138.789	1159.6	116.041	297.282	948.195	-50.1694	171.36	1037.22	105.365	28.0345	1482.09	74.5991	79.2955	1326.06	131.485	224.601	991.121	-26.2955	190.234	915.258	24.4835
627	2.612	-125.205	1541.44	-35.4653	32.3848	1365.86	-133.526	138.762	1159.37	116.437	296.252	945.749	-48.3376	170.625	1036.69	106.435	28.0209	1482.09	74.595	79.2668	1326.05	131.543	223.883	989.242	-24.8501	189.142	913.982	26.6291
628	2.617	-125.225	1541.45	-35.4818	32.4088	1365.87	-133.516	138.684	1159.08	116.955	294.967	942.681	-46.013	169.741	1036.07	107.664	28.0192	1482.09	74.6018	79.2263	1326.04	131.623	222.978	986.897	-23.0925	187.72	912.503	29.1828
629	2.621	-125.233	1541.46	-35.4902	32.4263	1365.87	-133.509	138.571	1158.79	117.395	293.893	940.298	-44.1982	169.042	1035.7	108.72	28.0092	1482.11	74.6038	79.1861	1326.02	131.705	222.137	985.027	-21.6695	186.603	911.389	31.3991
630	2.625	-125.237	1541.46	-35.4932	32.439	1365.88	-133.507	138.432	1158.53	117.8	292.83	937.979	-42.3837	168.403	1035.2	109.67	28.0161	1482.1	74.6116	79.1463	1326.01	131.784	221.302	983.188	-20.2541	185.481	910.139	33.5135
631	2.629	-125.241	1541.46	-35.4963	32.4514	1365.87	-133.511	138.298	1158.29	118.159	291.789	935.708	-40.5372	167.782	1034.82	110.71	28.0116	1482.07	74.5992	79.1183	1325.98	131.898	220.495	981.363	-18.8226	184.468	909.065	35.7465
632	2.633	-125.24	1541.46	-35.4989	32.4678	1365.86	-133.512	138.125	1158.05	118.482	290.704	933.414	-38.7311	167.126	1034.35	111.725	28.0108	1482.05	74.602	79.0962	1325.95	131.994	219.623	979.593	-17.3395	183.435	907.879	37.8119
633	2.638	-125.246	1541.45	-35.5066	32.5004	1365.87	-133.531	137.894	1157.78	118.85	289.378	930.669	-36.4891	166.267	1033.97	112.942	28.0217	1482.02	74.6028	79.0536	1325.9	132.1	218.566	977.389	-15.5168	182.11	906.606	40.5389
634	2.642	-125.246	1541.44	-35.5144	32.5243	1365.87	-133.542	137.667	1157.54	119.124	288.322	928.493	-34.637	165.613	1033.56	113.915	28.0349	1482	74.6112	79.0102	1325.85	132.186	217.74	975.665	-14.099	181.052	905.588	42.7043
635	2.646	-125.246	1541.43	-35.5268	32.5464	1365.86	-133.554	137.433	1157.3	119.368	287.225	926.291	-32.752	165.004	1033.23	114.827	28.0297	1481.98	74.6087	78.9375	1325.81	132.267	216.918	973.955	-12.6292	179.982	904.645	44.804
636	2.65	-125.237	1541.43	-35.525	32.5623	1365.86	-133.561	137.205	1157.09	119.56	286.162	924.133	-30.8822	164.357	1032.87	115.815	28.03	1481.96	74.6201	78.8806	1325.75	132.305	216.083	972.349	-11.2354	178.882	903.732	47.0353
637	2.654	-125.236	1541.41	-35.5265	32.5846	1365.85	-133.571	136.986	1156.88	119.714	285.123	921.991	-29.0086	163.684	1032.54	116.729	28.0425	1481.93	74.6382	78.8167	1325.67	132.345	215.331	970.754	-9.78799	177.768	902.716	49.0595
638	2.658	-125.239	1541.39	-35.5365	32.6168	1365.85	-133.576	136.789	1156.7	119.857	284.081	919.9	-27.1067	163.014	1032.25	117.704	28.0457	1481.9	74.6566	78.7348	1325.58	132.359	214.536	969.119	-8.32009	176.653	901.894	51.2476
639	2.663	-125.241	1541.38	-35.5435	32.6558	1365.84	-133.584	136.527	1156.49	120.057	282.767	917.254	-24.6883	162.196	1031.88	118.824	28.022	1481.85	74.6791	78.638	1325.48	132.359	213.585	967.167	-6.52031	175.257	900.749	53.6965
640	2.667	-125.248	1541.37	-35.5625	32.6851	1365.84	-133.584	136.31	1156.3	120.237	281.734	915.204	-22.7828	161.545	1031.48	119.692	28.0376	1481.87	74.6889	78.5624	1325.41	132.349	212.845	965.603	-5.06968	174.146	899.953	55.7109
641	2.671	-125.255	1541.38	-35.5804	32.7099	1365.85	-133.585	136.095	1156.1	120.435	280.691	913.16	-20.8353	160.898	1031.2	120.583	28.0289	1481.86	74.704	78.4698	1325.35	132.339	212.085	964.133	-3.63914	172.987	899.153	57.6535
642	2.675	-125.259	1541.37	-35.5918	32.7465	1365.85	-133.584	135.868	1155.9	120.661	279.649	911.122	-18.8849	160.187	1030.9	121.492	27.986	1481.81	74.7252	78.3915	1325.29	132.344	211.34	962.611	-2.18805	171.809	898.408	59.6371
643	2.679	-125.275	1541.35	-35.5985	32.7736	1365.85	-133.572	135.662	1155.71	120.888	278.614	909.123	-16.9425	159.503	1030.65	122.398	27.969	1481.79	74.7452	78.3125	1325.23	132.361	210.589	961.156	-0.700358	170.596	897.685	61.5298
644	2.683	-125.278	1541.34	-35.604	32.8137	1365.85	-133.572	135.448	1155.47	121.124	277.571	907.05	-14.8655	158.813	1030.3	123.312	27.9491	1481.78	74.7661	78.2418	1325.19	132.389	209.895	959.668	0.750949	169.356	896.944	63.401
645	2.688	-125.29	1541.35	-35.6158	32.8547	1365.87	-133.548	135.185	1155.22	121.468	276.277	904.62	-12.3273	157.955	1029.95	124.392	27.928	1481.77	74.7891	78.1475	1325.12	132.453	209.011	957.885	2.61101	167.65	896.614	66.2401
646	2.692	-125.304	1541.34	-35.6253	32.9225	1365.88	-133.538	134.961	1155.02	121.778	275.218	902.641	-10.2598	157.157	1029.65	125.248	27.9162	1481.78	74.8076	78.0788	1325.1	132.522	208.292	956.49	4.09293	166.365	895.939	68.0337
647	2.696	-125.309	1541.33	-35.6276	32.9477	1365.9	-133.525	134.67	1154.83	122.109	274.146	900.701	-8.20503	156.412	1029.43	126.167	27.8972	1481.78	74.821	78.0142	1325.07	132.602	207.632	955.074	5.60832	165.046	895.344	69.8607
648	2.7	-125.31	1541.33	-35.6327	32.9765	1365.9	-133.51	134.41	1154.65	122.393	273.023	898.78	-6.13577	155.647	1029.08	127.014	27.8833	1481.78	74.8422	77.9475	1325.04	132.702	206.906	953.743	7.07023	163.8	894.718	71.6413
649	2.704	-125.326	1541.34	-35.642	32.9925	1365.93	-133.493	134.176	1154.47	122.696	271.911	896.856	-4.04102	154.909	1028.99	127.793	27.8708	1481.78	74.8589	77.894	1325.02	132.8	206.186	952.386	8.58025	162.494	894.086	73.391
650	2.708	-125.328	1541.33	-35.6432	33.0276	1365.92	-133.491	133.951	1154.29	122.968	270.798	895.036	-1.98449	154.108	1028.73	128.69	27.8633	1481.77	74.87	77.8348	1324.98	132.919	205.483	951.06	10.1062	161.147	893.625	75.3153
651	2.712	-125.339	1541.33	-35.6477	33.0628	1365.93	-133.482	133.705	1154.11	123.301	269.663	893.161	0.0961664	153.347	1028.34	129.574	27.8533	1481.77	74.8817	77.8002	1324.96	132.992	204.75	949.76	11.5755	159.79	893.009	77.1388
652	2.717	-125.357	1541.34	-35.6697	33.1008	1365.95	-133.478	133.357	1153.85	123.724	268.166	890.886	2.70192	152.392	1028.04	130.568	27.8463	1481.78	74.8858	77.7594	1324.93	133.075	203.772	948.096	13.4735	158.103	892.282	79.3891
653	2.721	-125.368	1541.33	-35.6812	33.1258	1365.96	-133.473	133.084	1153.67	124.031	266.899	889.083	4.75345	151.587	1027.8	131.464	27.8372	1481.78	74.8791	77.734	1324.92	133.128	202.984	946.808	14.9648	156.751	891.543	81.1012
654	2.725	-125.369	1541.31	-35.6775	33.1639	1365.99	-133.471	132.847	1153.49	124.326	265.645	887.228	6.86881	150.832	1027.6	132.223	27.8326	1481.78	74.8797	77.7033	1324.88	133.179	202.154	945.535	16.4838	155.608	890.619	82.5229
655	2.729	-125.385	1541.31	-35.6896	33.195	1365.98	-133.472	132.632	1153.33	124.595	264.335	885.407	8.90578	150.105	1027.37	132.987	27.8253	1481.78	74.8785	77.6859	1324.86	133.221	201.304	944.261	17.9049	154.632	889.856	84.0429
656	2.733	-125.392	1541.3	-35.6899	33.2173	1365.99	-133.469	132.401	1153.16	124.883	262.996	883.556	10.9674	149.422	1027.21	133.761	27.8143	1481.8	74.8755	77.6723	1324.86	133.264	200.405	942.956	19.4274	153.131	889.858	86.4063
657	2.737	-125.41	1541.3	-35.6837	33.2425	1366.01	-133.462	132.179	1152.98	125.156	261.522	881.683	13.0293	148.624	1027.04	134.525	27.7954	1481.81	74.8746	77.6622	1324.87	133.299	199.485	941.627	20.923	151.676	889.629	88.6505
658	2.742	-125.425	1541.3	-35.6819	33.2681	1366.02	-133.44	131.88	1152.76	125.495	259.643	879.337	15.5002	147.705	1026.83	135.428	27.7822	1481.85	74.8903	77.6503	1324.88	133.338	198.244	939.918	22.7514	149.957	890.092	92.2376
659	2.746	-125.441	1541.3	-35.6742	33.2828	1366.03	-133.421	131.697	1152.62	125.739	258.076	877.393	17.4893	147.036	1026.72	136.184	27.7654	1481.89	74.9044	77.6297	1324.88	133.363	197.177	938.529	24.2503	148.695	889.744	94.4179
660	2.75	-125.463	1541.31	-35.6586	33.2973	1366.05	-133.4	131.533	1152.5	125.962	256.43	875.496	19.4642	146.357	1026.56	136.945	27.738	1481.95	74.9332	77.6001	1324.88	133.389	196.045	937.156	25.717	147.415	888.854	95.934
661	2.754	-125.482	1541.32	-35.6457	33.3068	1366.05	-133.37	131.344	1152.36	126.17	254.802	873.602	21.4117	145.66	1026.43	137.667	27.709	1481.99	74.9601	77.5591	1324.89	133.417	194.851	935.702	27.191	146.035	888.184	97.5707
662	2.758	-125.505	1541.32	-35.6338	33.328	1366.07	-133.341	131.203	1152.22	126.393	253.061	871.572	23.3609	144.989	1026.36	138.356	27.6863	1482.03	74.9842	77.5242	1324.88	133.423	193.679	934.267	28.626	144.746	887.447	99.2687
663	2.763	-125.54	1541.32	-35.6264	33.3567	1366.08	-133.304	131.041	1152.06	126.622	250.872	869.159	25.8617	144.203	1026.22	139.289	27.6608	1482.07	75.0096	77.4754	1324.86	133.411	192.085	932.532	30.4666	143.089	886.817	101.476
664	2.767	-125.563	1541.32	-35.6199	33.3745	1366.11	-133.249	130.895	1151.91	126.8	249.077	867.223	27.8119	143.602	1026.14	139.943	27.6439	1482.12	75.0321	77.4346	1324.85	133.392	190.81	931.173	31.9317	141.712	886.413	103.384
665	2.771	-125.588	1541.32	-35.6156	33.3979	1366.13	-133.218	130.752	1151.76	126.967	247.258	865.269	29.7691	142.934	1026.06	140.604	27.6625	1482.18	75.0456	77.4006	1324.83	133.374	189.538	929.806	33.3621	140.313	886.187	105.401
